<svg width="32" height="32" viewBox="0 0 32 32" fill="none" xmlns="http://www.w3.org/2000/svg">
  <!-- I Piece -->
  <rect x="2" y="2" width="6" height="6" rx="1" fill="#31C7EF" />
  <rect x="2" y="9" width="6" height="6" rx="1" fill="#31C7EF" />
  <rect x="2" y="16" width="6" height="6" rx="1" fill="#31C7EF" />
  <rect x="2" y="23" width="6" height="6" rx="1" fill="#31C7EF" />
  
  <!-- L Piece -->
  <rect x="9" y="9" width="6" height="6" rx="1" fill="#EF7921" />
  <rect x="16" y="9" width="6" height="6" rx="1" fill="#EF7921" />
  <rect x="23" y="9" width="6" height="6" rx="1" fill="#EF7921" />
  <rect x="9" y="16" width="6" height="6" rx="1" fill="#EF7921" />
  
  <!-- Z Piece -->
  <rect x="16" y="16" width="6" height="6" rx="1" fill="#EF2029" />
  <rect x="23" y="16" width="6" height="6" rx="1" fill="#EF2029" />
  <rect x="9" y="23" width="6" height="6" rx="1" fill="#EF2029" />
  <rect x="16" y="23" width="6" height="6" rx="1" fill="#EF2029" />
</svg> 